<?xml version="1.0" standalone="no"?>
<!DOCTYPE svg PUBLIC "-//W3C//DTD SVG 20010904//EN"
 "http://www.w3.org/TR/2001/REC-SVG-20010904/DTD/svg10.dtd">
<svg version="1.0" xmlns="http://www.w3.org/2000/svg"
 width="225.000000pt" height="225.000000pt" viewBox="0 0 225.000000 225.000000"
 preserveAspectRatio="xMidYMid meet">

<g transform="translate(0.000000,225.000000) scale(0.100000,-0.100000)"
fill="#000000" stroke="none">
<path d="M1020 2013 c0 -10 18 -79 40 -153 22 -74 40 -137 40 -141 0 -4 -42
-7 -94 -8 l-94 -2 -32 46 c-25 36 -37 45 -60 45 l-30 0 0 -150 0 -150 29 0
c24 0 35 8 58 45 l28 45 98 0 c53 0 97 -3 97 -6 0 -3 -18 -69 -41 -146 -22
-77 -38 -147 -35 -154 3 -9 21 -14 45 -14 l39 0 84 155 83 155 93 0 c85 0 95
2 117 25 28 27 30 42 14 79 -16 34 -51 44 -144 39 l-80 -4 -81 153 -82 153
-46 3 c-39 3 -46 0 -46 -15z"/>
<path d="M636 1614 c-38 -13 -71 -25 -73 -28 -5 -5 28 -86 35 -86 22 0 142 46
142 54 0 22 -21 86 -28 85 -4 0 -38 -11 -76 -25z"/>
<path d="M1561 1578 c-24 -65 -26 -62 51 -96 39 -18 72 -31 73 -29 2 1 12 21
24 44 l21 41 -75 31 c-40 17 -76 31 -80 31 -3 0 -9 -10 -14 -22z"/>
<path d="M330 1469 c-36 -23 -67 -43 -69 -45 -2 -2 8 -22 22 -43 l27 -40 65
40 c36 23 65 45 65 50 0 7 -40 79 -43 79 -1 0 -31 -19 -67 -41z"/>
<path d="M1854 1410 c-15 -22 -25 -42 -23 -44 2 -2 31 -24 63 -48 l59 -45 29
32 c15 18 28 36 28 40 0 7 -27 30 -92 77 l-38 28 -26 -40z"/>
<path d="M57 1249 l-56 -63 32 -28 c18 -15 37 -27 42 -27 6 1 32 26 59 56 l50
54 -36 35 -35 36 -56 -63z"/>
<path d="M2102 1190 l-32 -30 46 -57 c26 -32 48 -60 50 -62 2 -2 22 8 44 23
l41 27 -49 62 c-27 33 -53 62 -58 64 -5 1 -24 -11 -42 -27z"/>
<path d="M900 1121 c-259 -55 -482 -228 -602 -466 -41 -80 -76 -204 -87 -308
-16 -137 -18 -127 38 -127 l48 0 7 82 c7 93 14 128 27 128 19 0 120 -42 140
-59 19 -16 22 -26 20 -84 l-2 -66 422 -1 422 0 -45 40 c-91 80 -148 205 -148
325 0 77 -11 91 -82 100 -61 8 -127 34 -147 58 -25 32 10 259 45 284 29 21
225 17 320 -7 235 -59 427 -220 529 -444 39 -85 54 -144 65 -251 5 -52 5 -84
-2 -92 -8 -10 2 -13 46 -13 l56 0 0 64 c0 133 -43 285 -121 423 -60 106 -206
252 -312 312 -197 111 -422 147 -637 102z"/>
</g>
</svg>
